Coordinates
version=1
nRows=20
nColumns=38
inDegrees=no

Units are S.I. units (second, meters, Newtons, ...)
If the header above contains a line with 'inDegrees', this indicates whether rotational values are in degrees (yes) or radians (no).

endheader
time	pelvis_tilt	pelvis_list	pelvis_rotation	pelvis_tx	pelvis_ty	pelvis_tz	hip_flexion_r	hip_adduction_r	hip_rotation_r	knee_angle_r	ankle_angle_r	subtalar_angle_r	mtp_angle_r	hip_flexion_l	hip_adduction_l	hip_rotation_l	knee_angle_l	ankle_angle_l	subtalar_angle_l	mtp_angle_l	lumbar_extension	lumbar_bending	lumbar_rotation	arm_flex_r	arm_add_r	arm_rot_r	elbow_flex_r	pro_sup_r	wrist_flex_r	wrist_dev_r	arm_flex_l	arm_add_l	arm_rot_l	elbow_flex_l	pro_sup_l	wrist_flex_l	wrist_dev_l
2.16	-0.135542	1.39756	-1.29946	0.734952	0.253034	0.954098	0.31853	-0.0746387	-0.0761348	0.869363	-0.289302	0	0	-0.249835	0.00276076	-0.0292906	0.161544	-0.187668	0	0	-0.367047	0.123275	-0.0809498	-0.125912	-0.538614	0.629563	0.74967	0.801258	0	0	-0.0930966	-0.151753	-0.0705345	0.547121	1.5708	0	0
2.17	-0.134732	1.40087	-1.30008	0.735001	0.245267	0.952991	0.319564	-0.0744328	-0.0718109	0.812338	-0.274077	0	0	-0.255307	0.00260665	-0.0319834	0.163008	-0.180027	0	0	-0.365221	0.123009	-0.0819664	-0.121324	-0.538573	0.637193	0.74787	0.794449	0	0	-0.0913312	-0.152748	-0.0699535	0.547223	1.5708	0	0
2.18	-0.128596	1.40452	-1.30539	0.734991	0.237264	0.951836	0.31876	-0.0756808	-0.0708302	0.753145	-0.256678	0	0	-0.261109	0.00316794	-0.0334967	0.163848	-0.172525	0	0	-0.362678	0.121795	-0.083486	-0.117581	-0.537328	0.643792	0.744858	0.788109	0	0	-0.0893558	-0.153582	-0.0701607	0.54601	1.5708	0	0
2.19	-0.119068	1.40854	-1.31369	0.734895	0.229057	0.950596	0.316311	-0.0775768	-0.0726045	0.691145	-0.238972	0	0	-0.266804	0.00404328	-0.0345468	0.165152	-0.165749	0	0	-0.359418	0.119901	-0.085322	-0.114588	-0.535163	0.64952	0.740913	0.782641	0	0	-0.0875227	-0.154529	-0.0706994	0.544011	1.5708	0	0
2.2	-0.109773	1.41224	-1.32301	0.734658	0.220801	0.949302	0.311092	-0.0784347	-0.0751	0.622761	-0.224223	0	0	-0.273356	0.0049242	-0.0363364	0.165676	-0.158999	0	0	-0.3567	0.117894	-0.0859398	-0.111989	-0.533633	0.654876	0.737908	0.776865	0	0	-0.0858945	-0.155505	-0.0707799	0.542645	1.5708	0	0
2.21	-0.098677	1.41588	-1.33414	0.734338	0.212397	0.947923	0.304165	-0.0788033	-0.0793639	0.551097	-0.214274	0	0	-0.280313	0.0059514	-0.0377699	0.165506	-0.152959	0	0	-0.353966	0.115656	-0.0864828	-0.110477	-0.532039	0.658448	0.73569	0.77193	0	0	-0.0848548	-0.156819	-0.0703803	0.542131	1.5708	0	0
2.22	-0.087942	1.41845	-1.34616	0.733862	0.203945	0.946586	0.29411	-0.077472	-0.0831774	0.47517	-0.210322	0	0	-0.288234	0.00692256	-0.040538	0.165476	-0.147424	0	0	-0.35254	0.113572	-0.0859842	-0.10918	-0.531019	0.661451	0.734664	0.76815	0	0	-0.0844295	-0.158257	-0.0696993	0.543031	1.5708	0	0
2.23	-0.0796106	1.42039	-1.356	0.733251	0.195322	0.945269	0.281533	-0.074747	-0.08698	0.397441	-0.212545	0	0	-0.296196	0.00718839	-0.0438875	0.166827	-0.141805	0	0	-0.351497	0.111935	-0.0852604	-0.108088	-0.529932	0.664404	0.733656	0.765796	0	0	-0.0847719	-0.160206	-0.0679551	0.544898	1.5708	0	0
2.24	-0.0703479	1.41859	-1.36609	0.732488	0.186704	0.944134	0.262135	-0.0704852	-0.0887634	0.316244	-0.226993	0	0	-0.307784	0.00610463	-0.0465402	0.168893	-0.135243	0	0	-0.347379	0.108821	-0.0248689	-0.202415	-0.485633	0.452483	0.73953	0.918021	0	0	-0.0292097	-0.225884	0.257166	0.521509	1.33641	0	0
2.25	-0.0765396	1.42109	-1.36075	0.731857	0.177693	0.942781	0.246822	-0.0644436	-0.0862645	0.23902	-0.248227	0	0	-0.313536	0.00366741	-0.0496398	0.174016	-0.127565	0	0	-0.353018	0.111969	-0.076048	-0.128727	-0.516824	0.607887	0.735352	0.814715	0	0	-0.0802668	-0.165299	-0.054261	0.545819	1.5708	0	0
2.26	-0.0745336	1.42122	-1.36379	0.731062	0.168706	0.941421	0.231778	-0.0591754	-0.0827328	0.17687	-0.259	0	0	-0.321264	0.00174646	-0.053647	0.181087	-0.11927	0	0	-0.353244	0.111982	-0.0737622	-0.133557	-0.513971	0.596947	0.736671	0.823287	0	0	-0.0810088	-0.167462	-0.0512211	0.548829	1.5708	0	0
2.27	-0.071347	1.42142	-1.36805	0.730253	0.159626	0.940058	0.223981	-0.0552581	-0.0835294	0.142743	-0.258257	0	0	-0.328505	2.34003e-05	-0.0572743	0.189187	-0.110775	0	0	-0.353018	0.111919	-0.071049	-0.138742	-0.511391	0.586796	0.737933	0.831137	0	0	-0.0813468	-0.169452	-0.0468246	0.551097	1.5708	0	0
2.28	-0.0705654	1.42175	-1.36823	0.729536	0.150386	0.938823	0.222128	-0.0520739	-0.0916656	0.133402	-0.253954	0	0	-0.335252	-0.00260361	-0.0580405	0.197483	-0.104944	0	0	-0.351952	0.112675	-0.0698446	-0.143171	-0.508544	0.578872	0.737491	0.835699	0	0	-0.0806276	-0.171038	-0.0422957	0.549956	1.5708	0	0
2.29	-0.069796	1.42089	-1.36964	0.72882	0.141233	0.937843	0.220944	-0.0482991	-0.0949366	0.135302	-0.254415	0	0	-0.344259	-0.00461149	-0.0565997	0.202588	-0.107482	0	0	-0.3518	0.113471	-0.0648858	-0.14925	-0.506455	0.569926	0.737455	0.838134	0	0	-0.076858	-0.175711	-0.0210169	0.545903	1.56386	0	0
2.3	-0.0715586	1.41939	-1.36798	0.728194	0.131962	0.937052	0.220054	-0.0438938	-0.0966397	0.146974	-0.256096	0	0	-0.352508	-0.00771908	-0.057026	0.211279	-0.103888	0	0	-0.35364	0.11538	-0.0670839	-0.147221	-0.507062	0.574825	0.737495	0.834429	0	0	-0.0793673	-0.173418	-0.0323869	0.547102	1.5708	0	0
2.31	-0.0754875	1.41785	-1.36319	0.727593	0.122475	0.936395	0.222685	-0.0395125	-0.101253	0.175622	-0.252999	0	0	-0.360289	-0.0118669	-0.0570544	0.221179	-0.100607	0	0	-0.355219	0.117888	-0.0720602	-0.143482	-0.507699	0.582526	0.736958	0.829021	0	0	-0.083683	-0.171469	-0.0438411	0.54925	1.5708	0	0
2.32	-0.0803443	1.41648	-1.35797	0.726867	0.112837	0.935818	0.226734	-0.0346479	-0.103951	0.211497	-0.246488	0	0	-0.368124	-0.0160761	-0.0566853	0.230564	-0.099645	0	0	-0.35615	0.120177	-0.0760342	-0.140486	-0.507783	0.589467	0.735721	0.824077	0	0	-0.0874905	-0.170524	-0.051207	0.550067	1.5708	0	0
2.33	-0.0861304	1.41551	-1.35176	0.726079	0.103031	0.935296	0.230508	-0.029339	-0.105339	0.24733	-0.236622	0	0	-0.375003	-0.0204792	-0.0567508	0.241053	-0.100052	0	0	-0.356164	0.122541	-0.0798483	-0.138478	-0.507717	0.595224	0.734766	0.819574	0	0	-0.0911285	-0.16971	-0.0571587	0.550342	1.5708	0	0
2.34	-0.0856648	1.41318	-1.35122	0.725177	0.0931384	0.934867	0.231683	-0.0246635	-0.105739	0.28021	-0.2208	0	0	-0.382658	-0.0247706	-0.0576704	0.253291	-0.101124	0	0	-0.349262	0.121893	-0.0335069	-0.209875	-0.474183	0.44411	0.737972	0.923982	0	0	-0.0462977	-0.236162	0.256946	0.532311	1.32542	0	0
2.35	-0.100924	1.41594	-1.33449	0.724508	0.0827339	0.93443	0.233121	-0.0185957	-0.100383	0.292804	-0.232645	0	0	-0.383701	-0.0304085	-0.059484	0.267436	-0.105875	0	0	-0.352666	0.127302	-0.0915492	-0.135817	-0.5051	0.600567	0.731012	0.829326	0	0	-0.101576	-0.167863	-0.0719206	0.55215	1.5708	0	0
